<svg width="21" height="21" viewBox="0 0 21 21" fill="none" xmlns="http://www.w3.org/2000/svg">
<g clip-path="url(#clip0)">
<path d="M0.949713 2.02581L0.891697 9.68931C0.88823 9.989 0.979756 10.2821 1.15315 10.5265C1.32655 10.771 1.5729 10.9543 1.85689 11.0501L11.3136 14.2674C11.5665 14.3528 11.8382 14.3659 12.0982 14.3054C12.3581 14.2448 12.5961 14.1129 12.7852 13.9245L13.5499 13.2125L14.2883 12.4741C14.4771 12.2798 14.6071 12.036 14.6631 11.7709C14.7191 11.5058 14.6989 11.2303 14.6048 10.9762L11.3875 1.51948C11.2917 1.2355 11.1084 0.989143 10.864 0.815749C10.6195 0.642354 10.3264 0.550827 10.0267 0.554294L2.36322 0.612311C1.98961 0.616425 1.63246 0.766667 1.36827 1.03086C1.10407 1.29506 0.953827 1.65221 0.949713 2.02581Z" fill="#D9EAF1"/>
<path d="M0.949713 2.02589L0.891697 9.68939C0.88823 9.98908 0.979756 10.2822 1.15315 10.5266C1.32655 10.7711 1.5729 10.9544 1.85689 11.0501L11.3136 14.2675C11.5665 14.3529 11.8382 14.366 12.0982 14.3055C12.3581 14.2449 12.5961 14.113 12.7852 13.9246L13.5499 13.2126L1.36638 1.02905C1.10146 1.29337 0.951699 1.65166 0.949713 2.02589Z" fill="#BAD5DD"/>
<path d="M20.0215 19.6843C19.7451 19.9624 19.4163 20.1831 19.0543 20.3337C18.6922 20.4843 18.3039 20.5618 17.9118 20.5618C17.5197 20.5618 17.1314 20.4843 16.7693 20.3337C16.4073 20.1831 16.0786 19.9624 15.8021 19.6843L11.8675 15.7497C10.7072 14.5893 14.9107 10.3857 16.0869 11.5303L20.0215 15.4649C20.2996 15.7413 20.5203 16.07 20.6709 16.4321C20.8215 16.7942 20.8991 17.1824 20.8991 17.5746C20.8991 17.9667 20.8215 18.355 20.6709 18.717C20.5203 19.0791 20.2996 19.4078 20.0215 19.6843Z" fill="#569BE8"/>
<path d="M11.8831 15.7494L15.8177 19.684C16.0941 19.9622 16.4229 20.1829 16.7849 20.3335C17.147 20.4841 17.5353 20.5616 17.9274 20.5616C18.3195 20.5616 18.7078 20.4841 19.0699 20.3335C19.4319 20.1829 19.7606 19.9622 20.0371 19.684L13.1173 12.78C12.0677 13.8296 11.3029 15.1693 11.8831 15.7494Z" fill="#2C7DC6"/>
</g>
<defs>
<clipPath id="clip0">
<rect width="20" height="20" fill="white" transform="translate(0.891602 0.554443)"/>
</clipPath>
</defs>
</svg>
