<svg width="21" height="20" viewBox="0 0 21 20" fill="none" xmlns="http://www.w3.org/2000/svg">
<g clip-path="url(#clip0)">
<path d="M10.8562 18.9849C18.4629 18.9849 22.1849 3.95032 18.7351 3.95032C13.3471 3.95439 14.2126 0.866211 10.8562 0.866211C7.49985 0.866211 8.36941 3.95439 2.98136 3.95439C-0.468457 3.95439 3.0545 18.9849 10.8562 18.9849Z" fill="#2C7DC6"/>
<path d="M18.7227 3.95439C13.3468 3.95439 14.2123 0.866211 10.856 0.866211V18.9808C18.4626 18.9849 22.1847 3.95439 18.7227 3.95439Z" fill="#569BE8"/>
<path d="M10.86 19.7975C8.01567 19.7975 5.37853 18.0096 3.39966 14.7629C1.84745 12.2152 0.843792 8.96854 0.843792 6.48581C0.812049 5.73443 0.950973 4.98563 1.25013 4.29564C1.39363 3.95469 1.63427 3.66348 1.94206 3.45828C2.24986 3.25309 2.61121 3.14297 2.98113 3.14164C5.67922 3.14164 6.57317 2.32896 7.45086 1.54067C8.19853 0.841764 9.06403 0.0534668 10.86 0.0534668C12.6561 0.0534668 13.5175 0.841764 14.2814 1.54067C15.1429 2.32896 16.0368 3.14164 18.7227 3.14164C19.0859 3.14273 19.4408 3.24982 19.744 3.44976C20.0471 3.64971 20.2853 3.93381 20.4293 4.2672C20.7238 4.93717 20.8627 5.66511 20.8357 6.39642C20.8438 11.1221 17.0526 19.7975 10.86 19.7975ZM10.86 1.67882C9.69385 1.67882 9.23469 2.08516 8.53172 2.73937C7.54026 3.64144 6.30905 4.77106 2.98113 4.77106C2.92425 4.77106 2.83079 4.77106 2.70889 5.01893C2.52758 5.48583 2.44592 5.98548 2.46915 6.48581C2.46915 10.4964 5.71986 18.1721 10.86 18.1721C15.7686 18.1721 19.2184 10.5329 19.2184 6.38829C19.2462 5.90828 19.1671 5.42811 18.9868 4.98236C18.873 4.75887 18.7918 4.75887 18.7349 4.75887C15.407 4.75887 14.1758 3.63331 13.1843 2.72718C12.4854 2.08516 12.0222 1.67882 10.86 1.67882Z" fill="#B4DAEF"/>
</g>
<defs>
<clipPath id="clip0">
<rect width="20" height="19.744" fill="white" transform="translate(0.84375 0.0534668)"/>
</clipPath>
</defs>
</svg>
