<svg width="21" height="21" viewBox="0 0 21 21" fill="none" xmlns="http://www.w3.org/2000/svg">
<g clip-path="url(#clip0)">
<path d="M11.8849 1.65307L13.5283 6.7149C13.5967 6.9253 13.7301 7.10857 13.9094 7.23831C14.0886 7.36806 14.3043 7.43758 14.5256 7.43688H19.8427C20.0634 7.43683 20.2785 7.50668 20.4571 7.63641C20.6357 7.76614 20.7686 7.94909 20.8368 8.15903C20.905 8.36896 20.905 8.5951 20.8368 8.80503C20.7685 9.01495 20.6356 9.19788 20.4569 9.32758L16.153 12.4548C15.975 12.5851 15.8426 12.7681 15.7745 12.9779C15.7065 13.1877 15.7063 13.4136 15.7741 13.6236L17.4175 18.6814C17.4825 18.8895 17.4808 19.1126 17.4126 19.3197C17.3445 19.5268 17.2133 19.7073 17.0375 19.8361C16.8616 19.965 16.6499 20.0356 16.432 20.0381C16.214 20.0406 16.0007 19.9749 15.8219 19.8501L11.506 16.7229C11.327 16.5943 11.1121 16.5251 10.8917 16.5251C10.6713 16.5251 10.4565 16.5943 10.2774 16.7229L5.9735 19.8501C5.79473 19.9749 5.58144 20.0406 5.36347 20.0381C5.1455 20.0356 4.93377 19.965 4.75792 19.8361C4.58207 19.7073 4.4509 19.5268 4.38277 19.3197C4.31464 19.1126 4.31296 18.8895 4.37796 18.6814L6.02136 13.6236C6.08908 13.4136 6.08891 13.1877 6.02089 12.9779C5.95286 12.7681 5.82043 12.5851 5.64242 12.4548L1.32651 9.32758C1.1479 9.19788 1.01494 9.01495 0.9467 8.80503C0.878461 8.5951 0.878443 8.36896 0.94665 8.15903C1.01486 7.94909 1.14779 7.76614 1.32638 7.63641C1.50497 7.50668 1.72005 7.43683 1.94079 7.43688H7.27386C7.49495 7.43697 7.71042 7.36721 7.8895 7.23755C8.06859 7.10789 8.20213 6.92497 8.27106 6.7149L9.89851 1.65307C9.96704 1.44369 10.1 1.26133 10.2784 1.13203C10.4567 1.00273 10.6714 0.933105 10.8917 0.933105C11.112 0.933105 11.3267 1.00273 11.5051 1.13203C11.6835 1.26133 11.8164 1.44369 11.8849 1.65307Z" fill="#CEA600"/>
<path d="M11.5059 16.7228L15.8098 19.8501C15.9886 19.9748 16.2019 20.0405 16.4199 20.038C16.6378 20.0355 16.8496 19.9649 17.0254 19.8361C17.2013 19.7073 17.3324 19.5267 17.4006 19.3197C17.4687 19.1126 17.4704 18.8894 17.4054 18.6813L15.7739 13.6235C15.7062 13.4136 15.7064 13.1877 15.7744 12.9779C15.8424 12.7681 15.9749 12.585 16.1529 12.4548L20.4568 9.32754C20.6354 9.19783 20.7684 9.01491 20.8366 8.80498C20.9049 8.59506 20.9049 8.36892 20.8367 8.15898C20.7685 7.94905 20.6355 7.7661 20.457 7.63637C20.2784 7.50664 20.0633 7.43679 19.8425 7.43683H14.5254C14.3042 7.43754 14.0884 7.36801 13.9092 7.23827C13.73 7.10852 13.5966 6.92526 13.5282 6.71485L11.8848 1.65303C11.82 1.44125 11.688 1.2563 11.5089 1.12607C11.3297 0.995843 11.1131 0.927394 10.8916 0.931047V16.5234C11.1122 16.5239 11.3271 16.5936 11.5059 16.7228Z" fill="#F9D212"/>
</g>
<defs>
<clipPath id="clip0">
<rect width="20" height="19.1225" fill="white" transform="translate(0.891602 0.931152)"/>
</clipPath>
</defs>
</svg>
